<?xml version="1.0" standalone="no"?><!DOCTYPE svg PUBLIC "-//W3C//DTD SVG 1.1//EN" "http://www.w3.org/Graphics/SVG/1.1/DTD/svg11.dtd"><svg t="1755743746455" class="icon" viewBox="0 0 1024 1024" version="1.1" xmlns="http://www.w3.org/2000/svg" p-id="7508" xmlns:xlink="http://www.w3.org/1999/xlink" width="256" height="256"><path d="M976.853333 118.257778a40.590222 40.590222 0 0 1 0 57.400889L140.401778 1012.110222a40.590222 40.590222 0 0 1-57.400889-57.400889L919.452444 118.257778a40.590222 40.590222 0 0 1 57.400889 0zM924.444444 455.111111v412.017778A42.823111 42.823111 0 0 1 881.550222 910.222222H540.444444V710.456889L795.790222 455.111111H924.444444zM469.333333 781.568V910.222222h-128.654222L469.333333 781.568zM469.333333 440.888889v29.070222L85.333333 853.973333V440.888889h384zM827.079111 112.241778l-87.324444 87.338666c-3.214222 0.768-6.485333 1.464889-9.799111 2.090667h7.665777L541.141333 398.151111V204.131556c-9.728 0-21.802667-2.446222-29.084444-2.446223h-2.446222c-12.088889 2.446222-24.177778 2.446222-41.159111 4.807111V412.444444H42.666667V247.708444c0-26.652444 21.802667-46.037333 45.980444-46.037333h193.621333c-50.773333-12.088889-89.500444-33.92-91.946666-75.136-2.460444-48.483556 53.248-128.341333 133.12-108.970667 82.218667 19.370667 140.288 82.417778 183.808 138.097778 43.52-55.779556 108.856889-128.455111 193.635555-140.558222 67.953778-8.817778 121.984 49.948444 126.193778 97.137778zM967.111111 283.790222V412.444444h-128.654222L967.111111 283.790222z" fill="#cdcdcd" p-id="7509"></path></svg>