<?xml version="1.0" standalone="no"?><!DOCTYPE svg PUBLIC "-//W3C//DTD SVG 1.1//EN" "http://www.w3.org/Graphics/SVG/1.1/DTD/svg11.dtd"><svg t="1754794298774" class="icon" viewBox="0 0 1024 1024" version="1.1" xmlns="http://www.w3.org/2000/svg" p-id="15037" xmlns:xlink="http://www.w3.org/1999/xlink" width="256" height="256"><path d="M55.168 55.168a42.666667 42.666667 0 0 1 60.330667 0l517.205333 517.12c0.64 0.597333 1.237333 1.237333 1.792 1.877333l86.186667 86.186667A254.805333 254.805333 0 0 0 768 512v-85.333333a42.666667 42.666667 0 1 1 85.333333 0v85.333333a339.84 339.84 0 0 1-71.68 209.322667l187.178667 187.178666a42.666667 42.666667 0 0 1-60.330667 60.330667l-187.178666-187.178667A339.626667 339.626667 0 0 1 554.666667 850.688V896h128a42.666667 42.666667 0 1 1 0 85.333333H341.333333a42.666667 42.666667 0 1 1 0-85.333333h128v-45.312A341.376 341.376 0 0 1 170.666667 512v-85.333333a42.666667 42.666667 0 0 1 85.333333 0v85.333333a256 256 0 0 0 404.309333 208.64l-61.610666-61.610667A170.666667 170.666667 0 0 1 341.333333 512V401.664L55.168 115.498667a42.666667 42.666667 0 0 1 0-60.330667zM426.666667 486.997333V512a85.333333 85.333333 0 0 0 107.434666 82.432L426.666667 486.997333z" p-id="15038" fill="#cdcdcd"></path><path d="M359.125333 137.386667A170.666667 170.666667 0 0 1 682.666667 213.333333v187.733334a42.666667 42.666667 0 1 1-85.333334 0V213.333333a85.333333 85.333333 0 0 0-161.792-37.930666 42.666667 42.666667 0 0 1-76.416-37.973334z" p-id="15039" fill="#cdcdcd"></path></svg>