<?xml version="1.0" standalone="no"?><!DOCTYPE svg PUBLIC "-//W3C//DTD SVG 1.1//EN" "http://www.w3.org/Graphics/SVG/1.1/DTD/svg11.dtd"><svg t="1754794277762" class="icon" viewBox="0 0 1024 1024" version="1.1" xmlns="http://www.w3.org/2000/svg" p-id="14598" xmlns:xlink="http://www.w3.org/1999/xlink" width="256" height="256"><path d="M341.333333 213.333333a170.666667 170.666667 0 1 1 341.333334 0v298.666667a170.666667 170.666667 0 0 1-341.333334 0V213.333333z m170.666667-85.333333a85.333333 85.333333 0 0 0-85.333333 85.333333v298.666667a85.333333 85.333333 0 1 0 170.666666 0V213.333333a85.333333 85.333333 0 0 0-85.333333-85.333333z" p-id="14599" fill="#bfbfbf"></path><path d="M213.333333 384a42.666667 42.666667 0 0 1 42.666667 42.666667v85.333333a256 256 0 0 0 512 0v-85.333333a42.666667 42.666667 0 1 1 85.333333 0v85.333333a341.376 341.376 0 0 1-298.666666 338.688V896h128a42.666667 42.666667 0 1 1 0 85.333333H341.333333a42.666667 42.666667 0 1 1 0-85.333333h128v-45.312A341.376 341.376 0 0 1 170.666667 512v-85.333333a42.666667 42.666667 0 0 1 42.666666-42.666667z" p-id="14600" fill="#bfbfbf"></path></svg>