<?xml version="1.0" standalone="no"?><!DOCTYPE svg PUBLIC "-//W3C//DTD SVG 1.1//EN" "http://www.w3.org/Graphics/SVG/1.1/DTD/svg11.dtd"><svg t="1769157257056" class="icon" viewBox="0 0 1024 1024" version="1.1" xmlns="http://www.w3.org/2000/svg" p-id="5404" xmlns:xlink="http://www.w3.org/1999/xlink" width="256" height="256"><path d="M868.43 293.27L895 265.3c3.49-3.69 9.16-3.71 12.67-0.04a9.628 9.628 0 0 1 2.47 4.85l25.76 135.58c0.99 5.1-2.14 10.09-6.98 11.13-1.18 0.25-2.4 0.25-3.59 0l-128.8-27.12c-4.85-1.02-8.01-5.98-7.04-11.09a9.628 9.628 0 0 1 2.47-4.85l25.8-27.16-126.69-133.36-25.8 27.16c-3.49 3.69-9.16 3.71-12.67 0.04a9.628 9.628 0 0 1-2.47-4.85l-25.76-135.58c-0.99-5.1 2.14-10.09 6.98-11.13 1.18-0.25 2.4-0.25 3.59 0L763.74 116c4.85 1.02 8.01 5.98 7.04 11.09a9.628 9.628 0 0 1-2.47 4.85l-26.57 27.96c0 0.01 126.69 133.37 126.69 133.37z m-312.3 148.22h-73.47V185.61c0-26.04-20.06-47.16-44.8-47.16H178.02c-24.74 0-44.8 21.11-44.8 47.16v462.15c0 26.04 20.06 47.16 44.8 47.16h64.51v76.68h-89.6c-49.48 0-89.6-42.23-89.6-94.32V158.54c0-52.09 40.12-94.32 89.6-94.32h313.6c49.48 0 89.6 42.23 89.6 94.32v282.95z" p-id="5405" fill="#8a8a8a"></path><path d="M959.33 582.96v282.95c0 52.09-40.12 94.32-89.6 94.32h-492.8c-49.48 0-89.6-42.23-89.6-94.32V582.96c0-52.09 40.12-94.32 89.6-94.32h492.8c49.49 0 89.6 42.23 89.6 94.32z m-70.51 26.41c0-26.04-20.06-47.16-44.8-47.16H404.98c-24.74 0-44.8 21.11-44.8 47.16v226.36c0 26.04 20.06 47.16 44.8 47.16h439.04c24.74 0 44.8-21.11 44.8-47.16V609.37z" p-id="5406" fill="#8a8a8a"></path></svg>