<?xml version="1.0" standalone="no"?><!DOCTYPE svg PUBLIC "-//W3C//DTD SVG 1.1//EN" "http://www.w3.org/Graphics/SVG/1.1/DTD/svg11.dtd"><svg t="1754823029208" class="icon" viewBox="0 0 1024 1024" version="1.1" xmlns="http://www.w3.org/2000/svg" p-id="16054" xmlns:xlink="http://www.w3.org/1999/xlink" width="256" height="256"><path d="M341.333333 512a170.666667 170.666667 0 1 1 341.333334 0 170.666667 170.666667 0 0 1-341.333334 0z m170.666667-85.333333a85.333333 85.333333 0 1 0 0 170.666666 85.333333 85.333333 0 0 0 0-170.666666z" p-id="16055" fill="#707070"></path><path d="M395.946667 160.341333c22.741333-130.005333 209.365333-130.005333 232.106666 0a32.426667 32.426667 0 0 0 50.56 20.949334c107.989333-75.861333 239.957333 56.106667 164.096 164.096a32.426667 32.426667 0 0 0 20.949334 50.602666c130.005333 22.698667 130.005333 209.322667 0 232.021334a32.426667 32.426667 0 0 0-20.949334 50.602666c75.861333 107.989333-56.106667 239.957333-164.096 164.096a32.426667 32.426667 0 0 0-50.602666 20.949334c-22.698667 130.005333-209.322667 130.005333-232.021334 0a32.426667 32.426667 0 0 0-50.602666-20.949334c-107.989333 75.861333-239.957333-56.106667-164.096-164.096a32.426667 32.426667 0 0 0-20.949334-50.602666c-130.005333-22.698667-130.005333-209.322667 0-232.021334a32.426667 32.426667 0 0 0 20.949334-50.602666C105.429333 237.397333 237.397333 105.386667 345.386667 181.290667a32.426667 32.426667 0 0 0 50.602666-20.949334z m148.010666 14.677334c-6.272-35.84-57.642667-35.84-63.914666 0-14.848 85.034667-113.066667 125.738667-183.722667 76.117333-29.738667-20.906667-66.133333 15.445333-45.226667 45.184 49.664 70.613333 8.96 168.874667-76.074666 183.722667-35.84 6.272-35.84 57.642667 0 63.914666 85.034667 14.848 125.738667 113.066667 76.117333 183.722667-20.906667 29.738667 15.445333 66.133333 45.184 45.226667 70.613333-49.664 168.874667-8.96 183.722667 76.074666 6.272 35.84 57.642667 35.84 63.914666 0 14.848-85.034667 113.066667-125.738667 183.722667-76.117333 29.738667 20.906667 66.133333-15.445333 45.226667-45.184-49.664-70.613333-8.96-168.874667 76.074666-183.722667 35.84-6.272 35.84-57.642667 0-63.914666-85.034667-14.848-125.738667-113.066667-76.117333-183.722667 20.906667-29.738667-15.445333-66.133333-45.184-45.226667-70.613333 49.664-168.874667 8.96-183.722667-76.074666z" p-id="16056" fill="#707070"></path></svg>