<?xml version="1.0" standalone="no"?><!DOCTYPE svg PUBLIC "-//W3C//DTD SVG 1.1//EN" "http://www.w3.org/Graphics/SVG/1.1/DTD/svg11.dtd"><svg t="1754794315313" class="icon" viewBox="0 0 1024 1024" version="1.1" xmlns="http://www.w3.org/2000/svg" p-id="15256" xmlns:xlink="http://www.w3.org/1999/xlink" width="256" height="256"><path d="M288.384 170.666667h233.898667c34.346667 0 62.72 0 85.76 1.877333 24.021333 1.962667 46.08 6.186667 66.773333 16.725333a170.666667 170.666667 0 0 1 74.581333 74.581334c10.538667 20.693333 14.762667 42.752 16.725334 66.730666 1.706667 21.418667 1.877333 47.36 1.877333 78.421334l83.370667-83.370667c8.106667-8.149333 16.170667-16.170667 23.168-22.058667 6.272-5.248 19.498667-15.786667 37.76-17.194666a64 64 0 0 1 53.717333 22.186666c11.904 13.994667 13.781333 30.762667 14.506667 38.912 0.853333 9.130667 0.810667 20.48 0.810666 32v265.045334c0 11.52 0 22.869333-0.810666 32-0.725333 8.106667-2.602667 24.917333-14.506667 38.869333a64 64 0 0 1-53.717333 22.229333c-18.261333-1.450667-31.488-11.946667-37.76-17.194666a390.741333 390.741333 0 0 1-23.168-22.058667L768 614.997333c0 31.061333-0.128 57.002667-1.877333 78.421334-1.962667 23.978667-6.186667 46.037333-16.725334 66.730666a170.666667 170.666667 0 0 1-74.581333 74.581334c-20.693333 10.538667-42.752 14.762667-66.730667 16.725333-23.082667 1.877333-51.456 1.877333-85.76 1.877333H288.341333c-34.346667 0-62.72 0-85.76-1.877333-24.021333-1.962667-46.08-6.186667-66.773333-16.725333a170.666667 170.666667 0 0 1-74.581333-74.581334c-10.538667-20.693333-14.762667-42.752-16.725334-66.730666C42.666667 670.293333 42.666667 641.962667 42.666667 607.658667V416.341333c0-34.346667 0-62.72 1.877333-85.76 1.962667-24.021333 6.186667-46.08 16.725333-66.773333a170.666667 170.666667 0 0 1 74.581334-74.581333c20.693333-10.538667 42.752-14.762667 66.730666-16.725334C225.706667 170.666667 254.037333 170.666667 288.341333 170.666667zM682.666667 418.133333c0-36.565333 0-61.397333-1.621334-80.597333-1.493333-18.688-4.266667-28.288-7.68-34.944a85.333333 85.333333 0 0 0-37.290666-37.290667c-6.656-3.413333-16.213333-6.186667-34.944-7.68C581.930667 256 557.098667 256 520.533333 256H290.133333c-36.565333 0-61.397333 0-80.597333 1.621333-18.688 1.493333-28.288 4.266667-34.944 7.68a85.333333 85.333333 0 0 0-37.290667 37.290667c-3.413333 6.656-6.186667 16.213333-7.68 34.944C128 356.736 128 381.568 128 418.133333v187.733334c0 36.565333 0 61.397333 1.621333 80.597333 1.493333 18.688 4.266667 28.288 7.68 34.944a85.333333 85.333333 0 0 0 37.290667 37.290667c6.656 3.413333 16.213333 6.186667 34.944 7.68C228.736 768 253.568 768 290.133333 768h230.4c36.565333 0 61.397333 0 80.597334-1.621333 18.688-1.493333 28.288-4.266667 34.944-7.68a85.333333 85.333333 0 0 0 37.290666-37.290667c3.413333-6.656 6.186667-16.213333 7.68-34.944 1.578667-19.2 1.621333-44.032 1.621334-80.597333V418.133333z m102.997333 93.866667L896 622.336V401.664L785.664 512z" p-id="15257" fill="#cdcdcd"></path></svg>