<?xml version="1.0" standalone="no"?><!DOCTYPE svg PUBLIC "-//W3C//DTD SVG 1.1//EN" "http://www.w3.org/Graphics/SVG/1.1/DTD/svg11.dtd"><svg t="1754794322071" class="icon" viewBox="0 0 1024 1024" version="1.1" xmlns="http://www.w3.org/2000/svg" p-id="15470" xmlns:xlink="http://www.w3.org/1999/xlink" width="256" height="256"><path d="M55.168 55.168a42.666667 42.666667 0 0 1 60.330667 0l853.333333 853.333333a42.666667 42.666667 0 0 1-60.330667 60.330667l-178.645333-178.645333A170.282667 170.282667 0 0 1 597.333333 853.333333H213.333333a170.666667 170.666667 0 0 1-170.666666-170.666666V341.333333a170.666667 170.666667 0 0 1 88.618666-149.674666L55.168 115.498667a42.666667 42.666667 0 0 1 0-60.330667z m142.037333 202.368A85.333333 85.333333 0 0 0 128 341.333333v341.333334a85.333333 85.333333 0 0 0 85.333333 85.333333h384a85.333333 85.333333 0 0 0 71.552-38.784L197.205333 257.536zM601.130667 257.621333C581.930667 256 557.098667 256 520.533333 256H405.333333a42.666667 42.666667 0 0 1 0-85.333333h116.949334c34.346667 0 62.72 0 85.76 1.877333 24.021333 1.962667 46.08 6.186667 66.773333 16.725333a170.666667 170.666667 0 0 1 74.581333 74.581334c10.538667 20.693333 14.762667 42.752 16.725334 66.730666 1.706667 21.418667 1.877333 47.36 1.877333 78.421334l83.370667-83.370667c8.106667-8.149333 16.170667-16.170667 23.168-22.058667 6.272-5.248 19.498667-15.786667 37.76-17.194666a64 64 0 0 1 53.717333 22.186666c11.904 13.994667 13.781333 30.762667 14.506667 38.912 0.853333 9.130667 0.810667 20.48 0.810666 32v265.045334c0 11.52 0 22.869333-0.810666 32-0.725333 8.106667-2.602667 24.917333-14.506667 38.869333a64 64 0 0 1-53.717333 22.229333c-18.261333-1.450667-31.488-11.946667-37.76-17.194666a390.741333 390.741333 0 0 1-23.168-22.058667l-156.202667-156.16A42.666667 42.666667 0 0 1 682.666667 512V418.133333c0-36.565333 0-61.397333-1.621334-80.597333-1.493333-18.688-4.266667-28.288-7.68-34.944a85.333333 85.333333 0 0 0-37.290666-37.290667c-6.656-3.413333-16.213333-6.186667-34.944-7.68zM785.664 512L896 622.336V401.664L785.664 512z" p-id="15471" fill="#cdcdcd"></path></svg>